<svg xmlns="http://www.w3.org/2000/svg" viewBox="0 0 1200 630">
  <defs>
    <linearGradient id="g6" x1="0" y1="0" x2="1" y2="1">
      <stop offset="0%" stop-color="#fff3df"/>
      <stop offset="100%" stop-color="#d79a61"/>
    </linearGradient>
  </defs>
  <rect width="1200" height="630" fill="url(#g6)"/>
  <ellipse cx="620" cy="315" rx="300" ry="180" fill="#ffe9c8"/>
  <rect x="420" y="245" width="360" height="120" rx="30" fill="#fff7ea"/>
  <path d="M520 212 C510 183 542 173 540 145 C568 176 548 196 571 221" fill="none" stroke="#fff" stroke-width="16" stroke-linecap="round"/>
  <path d="M620 206 C610 177 642 167 640 139 C668 170 648 190 671 215" fill="none" stroke="#fff" stroke-width="16" stroke-linecap="round"/>
  <path d="M720 212 C710 183 742 173 740 145 C768 176 748 196 771 221" fill="none" stroke="#fff" stroke-width="16" stroke-linecap="round"/>
  <rect x="180" y="468" width="840" height="86" rx="24" fill="#ffffff" opacity="0.82"/>
  <text x="600" y="523" text-anchor="middle" font-family="Segoe UI, Tahoma, Geneva, Verdana, sans-serif" font-size="44" font-weight="700" fill="#9b6331">Xong hoi sauna</text>
</svg>
